<svg xmlns="http://www.w3.org/2000/svg" xml:space="preserve" width="40" height="40" style="fill-rule:evenodd;clip-rule:evenodd;stroke-linejoin:round;stroke-miterlimit:2" viewBox="0 0 32 32"><path d="M5.112 18.784 2.959 20.94a1.5 1.5 0 0 0 2.122 2.12l2.666-2.668c1.898.983 4.19 1.806 6.773 2.041V26a1.5 1.5 0 0 0 3 0v-3.571c2.147-.201 4.091-.806 5.774-1.571l3.199 3.202a1.5 1.5 0 0 0 2.122-2.12l-2.579-2.581c2.59-1.665 4.091-3.369 4.091-3.369a1.501 1.501 0 0 0-2.254-1.98S23.059 19.5 16 19.5c-7.059 0-11.873-5.49-11.873-5.49a1.501 1.501 0 0 0-2.254 1.98s1.175 1.334 3.239 2.794Z"/></svg>