<svg fill="none" height="24" viewBox="0 0 24 24" width="24" xmlns="http://www.w3.org/2000/svg"><path d="m6.25 18c0 .4142.33579.75.75.75s.75-.3358.75-.75zm11.6807-.2441.5321-.5286zm2.8268 0-.532-.5286zm-2.8268-4.5116.5321.5286zm2.3018.6622c.0403.4122.4072.7137.8194.6735.4123-.0403.7138-.4072.6735-.8194zm-.576 1.2672c-.4104.056-.6976.4342-.6415.8446s.4342.6976.8446.6415zm-3.4002-2.1735c0-.4142-.3358-.75-.75-.75s-.75.3358-.75.75zm-4.9912 4.9998c0 .4142.3358.75.75.75s.75-.3358.75-.75zm3.2818-1.1488-.6483.3772zm-1.5724-2.7022-.6482.3772zm2.3458 3.6473.2458.7086zm-3.1192-4.5924.2458.7086zm-4.19337.5463h.67181v-1.5h-.67181zm-.25773 4.2498v-2.4999h-1.5v2.4999zm0-2.4999v-1.4999h-1.5v1.4999zm.92954-.75h-1.67954v1.5h1.67954zm.50966-.4999c0 .2706-.2227.4999-.50966.4999v1.5c1.10443 0 2.00966-.8899 2.00966-1.9999zm-.50966-.5c.28696 0 .50966.2293.50966.5h1.5c0-1.11-.90523-2-2.00966-2zm-.67181-1.5c-.21648 0-.45372-.0016-.65206.0249-.21932.0293-.49978.1044-.73637.3392l1.05655 1.0647c-.03882.0386-.08149.0637-.11495.0774-.0275.0112-.0362.0094-.00687.0055.02978-.0039.07798-.0076.15842-.0096.08006-.002.17375-.0021.29528-.0021zm-.25773 1.75c0-.1207.00005-.2134.00206-.2926.00203-.0796.00571-.1267.0096-.1553.00381-.0282.0053-.0182-.00659.0104-.01438.0347-.04033.0777-.07922.1163l-1.05655-1.0647c-.23739.2355-.3142.5162-.34406.7366-.02686.1982-.02524.4349-.02524.6493zm10.6882 2.3332v-1.6666h-1.5v1.6666zm.9059.9166c-.4116 0-.6444-.0016-.8079-.0237-.1414-.0192-.1146-.0404-.0734.001l-1.0641 1.0572c.2836.2855.6269.3863.9364.4282.2874.0389.6401.0373 1.009.0373zm-2.4059-.9166c0 .3718-.0015.7255.037 1.0137.0413.3092.1405.6527.4235.9374l1.0641-1.0572c.0404.0407.0185.0658-.0009-.0788-.0221-.1658-.0237-.4012-.0237-.8151zm3.3118 0c0 .4139-.0016.6493-.0237.8151-.0193.1446-.0413.1195-.0008.0788l1.064 1.0572c.283-.2847.3823-.6282.4236-.9374.0385-.2882.0369-.6419.0369-1.0137zm-.9059 2.4166c.369 0 .7216.0016 1.0091-.0373.3095-.0419.6527-.1427.9363-.4282l-1.064-1.0572c.0411-.0414.0679-.0202-.0735-.001-.1635.0221-.3963.0237-.8079.0237zm0-6.4998c-.3689 0-.7216-.0016-1.009.0373-.3095.0419-.6528.1427-.9364.4282l1.0641 1.0572c-.0412.0414-.068.0202.0734.001.1635-.0221.3963-.0237.8079-.0237zm-.9059 2.4166c0-.4139.0016-.6493.0237-.815.0194-.1447.0413-.1196.0009-.0789l-1.0641-1.0572c-.283.2848-.3822.6282-.4235.9374-.0385.2882-.037.642-.037 1.0137zm3.3118 1.6666c0-.4787-.2822-.7981-.5719-.9636-.2523-.1442-.5315-.1917-.7249-.2109-.2083-.0207-.406-.0163-.5445-.0082-.071.0041-.1308.0094-.174.0138-.0217.0023-.0395.0043-.0527.0059-.0066.0008-.0121.0015-.0163.0021-.0022.0002-.004.0005-.0055.0007-.0008.0001-.0015.0002-.0021.0002-.0003.0001-.0006.0001-.0008.0002-.0002 0-.0003 0-.0004 0-.0002 0-.0004.0001.1012.7432.1015.743.1014.7431.1012.7431 0 0-.0002 0-.0003 0-.0002.0001-.0003.0001-.0005.0001-.0003 0-.0005.0001-.0007.0001-.0003 0-.0004 0-.0002 0 .0005 0 .002-.0002.0045-.0005.005-.0006.0139-.0017.0261-.0029.0247-.0026.062-.0059.1073-.0086.0944-.0054.2072-.0067.3093.0034.1171.0117.1484.0317.129.0206-.0172-.0099-.0674-.0424-.1132-.1119-.0503-.0762-.0706-.1595-.0706-.2268zm-6.9937-3.3332v3.5182h1.5v-3.5182zm-1.9912 4.9998v-3.5182h-1.5v3.5182zm2.43-1.526-1.5723-2.7022-1.2965.7544 1.5723 2.7022zm-.4388.0444c0 .4248-.0012.6769-.0187.8357-.0089.0804-.0163.0727.0034.0279.0259-.0591.1186-.2197.3335-.2943l.4916 1.4172c.3079-.1068.4704-.3422.5486-.5205.0719-.1641.0994-.3356.1138-.4655.0289-.2618.0278-.6164.0278-1.0005zm-.8577.71c.1845.317.3585.6188.5139.8243.0762.1007.1931.2412.3541.3461.1878.1225.4767.218.7995.1061l-.4916-1.4172c.0982-.034.2056-.0426.3093-.0238.0971.0176.1655.0546.2018.0783.0597.0389.0683.0653.0233.0058-.0376-.0498-.0892-.1275-.1618-.2466-.0714-.1172-.1529-.2571-.252-.4274zm-1.1335-2.7466c0-.4248.0012-.6769.0187-.8357.0089-.0804.0163-.0727-.0034-.0278-.0259.059-.1186.2196-.3335.2942l-.4916-1.4172c-.3079.1068-.4704.3422-.5486.5205-.072.1641-.0994.3356-.1138.4655-.0289.2618-.0278.6164-.0278 1.0005zm.8577-.71c-.1845-.3169-.3585-.6188-.5139-.8243-.0762-.1007-.1931-.2412-.3541-.3461-.1878-.1224-.4767-.218-.7995-.1061l.4916 1.4172c-.0982.034-.2056.0426-.3093.0238-.0971-.0176-.1655-.0546-.2018-.0782-.0597-.0389-.0684-.0654-.0233-.0058.0376.0497.0892.1274.1617.2465.0715.1172.153.2571.2521.4274zm5.7213-.0216c.2049 0 .3684-.0019.5239.0068.1543.0087.2523.0261.3136.0463.0538.0177.0487.0273.0338.0091-.0159-.0193.0071-.0088.0171.0941l1.4929-.1459c-.0324-.3318-.1395-.6427-.3505-.8998-.21-.2559-.4752-.4002-.724-.4822-.4455-.1468-.9828-.1284-1.3068-.1284z" fill="#141b34"/><g stroke="#141b34" stroke-linecap="round" stroke-linejoin="round" stroke-width="1.5"><path d="m15 22h-4.2727c-3.26123 0-4.89184 0-6.02423-.7978-.32445-.2286-.61249-.4997-.85537-.8051-.8477-1.0658-.8477-2.6005-.8477-5.6698v-2.5455c0-2.96315 0-4.44474.46894-5.62805.75387-1.90233 2.3482-3.40287 4.36942-4.1124 1.25727-.44135 2.83144-.44135 5.97984-.44135 1.7991 0 2.6986 0 3.417.2522 1.155.40545 2.066 1.2629 2.4968 2.34994.268.67618.268 1.5228.268 3.21604v2.18182"/><path d="m3 12c0-1.8409 1.49238-3.33333 3.33333-3.33333.66579 0 1.45071.11666 2.09804-.05679.57515-.15412 1.02439-.60336 1.17851-1.17852.17345-.64732.05679-1.43224.05679-2.09803 0-1.84095 1.49243-3.33333 3.33333-3.33333"/></g></svg>